<?xml version="1.0" encoding="utf-8"?>
<!-- Generator: Adobe Illustrator 25.1.0, SVG Export Plug-In . SVG Version: 6.00 Build 0)  -->
<svg version="1.1" id="Camada_1" xmlns="http://www.w3.org/2000/svg" xmlns:xlink="http://www.w3.org/1999/xlink" x="0px" y="0px"
	 viewBox="0 0 1080 1080" style="enable-background:new 0 0 1080 1080;" xml:space="preserve">
<style type="text/css">
	.st0{fill:#FFFFFF;}
</style>
<g>
	<path class="st0" d="M16.9,818.5c9.7-10.1,18.6-21.1,29.3-30c12-10.1,15.7-21.5,15.5-37c-0.9-68.4-0.3-136.9-0.5-205.3
		c0-6.8,2-8.4,8.5-8.3c20.9,0.4,41.9,0.1,63.9,0.1c0,69.8,0,139,0,209c3.4,0,5.7,0,8,0c56.3,0,112.6-0.1,168.8,0
		c29.3,0,56.8-7.3,83.3-19.1c2.5-1.1,5.4-2.2,8.1-2.2c35.5-0.2,71.1-0.2,106.6-0.2c1.1,0,2.2,0.1,4.5,2c-8.3,7.9-16.4,16-25,23.5
		c-28.6,24.9-60.9,43.7-97.2,54.6c-17,5.1-34.6,7.9-51.9,11.8c-1.4,0.3-2.7,0.8-4,1.1C228.7,818.5,122.8,818.5,16.9,818.5z"/>
	<path class="st0" d="M1064.6,762.6c-17.2-0.2-34.3-0.4-51.5-0.4c-20.7-0.1-41.5,0.1-62.2-0.2c-2.8,0-6.3-1-8.2-2.9
		c-61.4-60.9-122.7-122-184-183.1c-0.7-0.7-1.2-1.5-2.2-2.8c7.1-7.7,14.2-15.4,21.3-23c49.8-53.6,99.7-107.2,149.3-160.9
		c3.6-3.9,7.2-5.3,12.4-5.3c36.2,0.2,72.5,0.1,108.7,0c0.9,0,1.8,0.3,4.3,0.6C993.3,448.1,934.9,510.4,876,573.3
		c1.9,2.1,3.5,4,5.2,5.8c59.7,59,119.3,118,179,177c1.3,1.3,2.9,2.5,4.4,3.7C1064.6,760.7,1064.6,761.7,1064.6,762.6z"/>
	<path class="st0" d="M324.6,261.7c13,2.2,26.1,4.1,39.1,6.6c35.4,6.8,67.6,21.4,97.4,41.4c32.5,21.7,58.6,49.6,80.1,82.1
		c1.4,2.1,2.3,4.6,3.8,7.5c-16.7,17.9-33.6,36-51.2,54.8c-4.7-8-8.8-15.6-13.3-22.9c-22-35.5-52.4-61.6-90.2-79
		c-29.6-13.6-60.9-18.6-93.2-18.6c-76.2,0-152.5,0-228.7,0c-2.1,0-4.2,0-7.2,0c0-24.3,0-48.1,0-71.9
		C149.1,261.7,236.8,261.7,324.6,261.7z"/>
	<path class="st0" d="M733.6,385c0,126.1,0,251,0,376.7c-2.2,0.2-4.2,0.4-6.3,0.4c-24.6,0-49.1-0.2-73.7,0.2
		c-6.7,0.1-8.3-1.8-8.3-8.3c0.2-91.6,0.1-183.2,0.1-274.8c0-2.6,0-5.1,0-7.7c-0.6-0.4-1.2-0.8-1.8-1.2
		C599,512.1,554.5,553.9,510,595.7c0.3,0.7,0.7,1.3,1,2c30.8,0,61.6,0,93.2,0c0,29.8,0,58.7,0,88.1c-69,0-137.5,0-206.9,0
		c-0.2-2.9-0.5-5.4-0.5-7.9c0.1-23.6,0.1-47.2,0.6-70.8c0.1-3.6,1.9-8,4.4-10.5c44.5-44.5,89.3-88.8,133.9-133.2
		c23.8-23.7,47.4-47.5,70.9-71.5c4.6-4.7,9.2-7.1,16.1-7c34.1,0.4,68.2,0.2,102.3,0.2C727.6,385,730.2,385,733.6,385z"/>
	<path class="st0" d="M297.8,567.4c11.5,7.7,21.4,14.3,31,20.7c0.2-10.8-8.7-25.5-17.3-28c0-2,0-4,0-6.9c6.4,2.5,12.9,5,19.4,7.6
		c0.4-0.3,0.9-0.7,1.3-1c-3.9-6.1-7.9-12.2-12.7-19.7c14.2,1.6,27.7,3.1,40.9,4.6c-6.1-11.4-27.9-22.1-35.7-18
		c-3-2.7-5.6-5.1-8.5-7.6c7.2-1.1,15.5-2.5,23.8-3.8c0.1-0.5,0.2-1.1,0.2-1.6c-7.8-3-15.7-6-25.2-9.7c7-3.8,12.7-7.3,18.7-9.9
		s12.5-4.4,18.7-6.5c0-0.6,0.1-1.3,0.1-1.9c-12.5-2.6-24.9-5.2-39-8.1c2-0.7,4-1.4,6-2.1c-0.5-0.7-1-1.5-1.6-2.2
		c-13.6,0.4-25.9,2.7-39.2,9c-14.1,6.7-20.6,17.1-27.9,28.6c-21.1-22.6-46.9-22.1-74.6-13.8c0-35.2,0-69.9,0-105.2
		c2.7,0,5.3,0,7.8,0c44.1,0,88.3,0.7,132.4-0.3c26.4-0.6,49.7,7.3,71.5,20.7c30.1,18.5,50.4,45.2,63.6,77.7
		c1.9,4.6,1.2,7.7-2.2,11.3c-28.2,29.8-56.1,59.8-84.4,89.6c-3.6,3.8-5,7.5-4.9,12.6c0.2,25.3-0.1,50.6,0.3,75.8
		c0.1,6.1-2.2,8.1-7.4,9.9c-16.7,5.9-33.8,4.5-51.1,4.3c-7-45.8-18.3-90.2-34.7-133.4c6.8,1,23.3,16.4,32.1,27.9
		C298.9,582.2,298.5,576.2,297.8,567.4z M372.3,460.2c-0.6-0.1-1.2-0.3-1.8-0.4c-2.9,6.2-5.7,12.4-8.8,19c4.8-1.1,10.2-2.3,15.5-3.5
		c-0.1-0.7-0.3-1.5-0.4-2.2c-1.5,0.1-3,0.3-4.5,0.5C372.3,468.9,372.3,464.5,372.3,460.2z M384.1,511.8c-0.5-1.2-1-2.4-1.4-3.6
		c-4.5,1.2-8.9,2.5-12.6,3.5c0,5.7,0,10.4,0,16.4C376.4,522.7,371.9,510.9,384.1,511.8z M408.2,523c5.3,2.4,15.7-6.5,17.2-15.4
		C419.6,512.8,414,517.8,408.2,523z"/>
	<path class="st0" d="M215,617.6c-0.1-14.6,5.6-27.3,12.5-39.6c1.1-1.9,0.1-4.9,0.1-8c0.9-0.2,2.8-0.7,5.5-1.4
		c3.6,12.1,6.6,25,16.6,32.8c0-12.2,0-24.8,0-37.3c-0.7-0.2-1.3-0.3-2-0.5c2.4-1.3,4.9-2.6,7.8-4.1c16.6,43.4,25,87.6,22.5,134.1
		c-34.3,0-67.8,0-102.2,0c0-2.6,0-5.2,0-7.7c0-30.5-1-61.1,0.7-91.5c0.6-10.1,0.4-21.9,6-30.8c3-4.7,3.9-11.2,8-14.2
		c5-3.7,11.9-4.8,19.3-7.6c-1.5,2.2-2.1,3.2-2.8,4.1c-6.8,8.1-7.4,17.2-4.9,27.1c1.7,7.1,2.6,14.3,4.1,21.4
		c1.8,7.9,3.9,15.8,5.9,23.7C213,617.9,214,617.8,215,617.6z"/>
	<path class="st0" d="M176.5,508.7c3.3-1.1,6.5-2.1,9.7-3.2c-0.1,0.4-0.3,0.7-0.4,1.1c8.4,1.2,16.9,2.4,25.3,3.6
		c-14.7,5.8-26.6,14.3-33.2,29.3c-0.5-0.3-1-0.7-1.5-1C176.5,528.5,176.5,518.5,176.5,508.7z"/>
	<path class="st0" d="M372.3,460.2c0,4.3,0,8.7,0,13.3c1.5-0.2,3-0.3,4.5-0.5c0.1,0.7,0.3,1.5,0.4,2.2c-5.3,1.2-10.7,2.4-15.5,3.5
		c3-6.6,5.9-12.8,8.8-19C371.1,459.9,371.7,460,372.3,460.2z"/>
	<path class="st0" d="M384.1,511.8c-12.1-0.9-7.6,10.9-14,16.3c0-6,0-10.7,0-16.4c3.7-1,8.1-2.3,12.6-3.5
		C383.1,509.4,383.6,510.6,384.1,511.8z"/>
	<path class="st0" d="M408.2,523c5.8-5.2,11.4-10.2,17.2-15.4C423.9,516.5,413.5,525.4,408.2,523z"/>
</g>
</svg>
