<?xml version="1.0" encoding="utf-8"?>
<!-- Generator: Adobe Illustrator 25.1.0, SVG Export Plug-In . SVG Version: 6.00 Build 0)  -->
<svg version="1.1" id="Camada_1" xmlns="http://www.w3.org/2000/svg" xmlns:xlink="http://www.w3.org/1999/xlink" x="0px" y="0px"
	 viewBox="0 0 362 363" style="enable-background:new 0 0 362 363;" xml:space="preserve">
<style type="text/css">
	.st0{fill:#043165;}
</style>
<g>
	<g>
		<path class="st0" d="M294,117.3c0,64.8-0.1,129.6-0.1,194.5c0,5.8-0.5,11.4-1.7,17.1c-2.1,9.8-8.6,14.9-18,16.9
			c-6.6,1.4-13.3,1.1-20,1.1c-63.1,0.2-126.2,0.4-189.3,0.6c-5.7,0-11.5-0.1-17-1.9c-12.6-4.1-21.4-14.9-21.3-27.6
			c0.2-79-0.8-157.9,0.7-236.9c0-2.3,0.2-4.6,0.3-6.9C28,58.2,37,48.6,53.1,47.9c11.8-0.5,23.7-0.1,35.6-0.1c5.5,0,11.1,0,16.6-0.1
			c3.6-0.1,5.1,1.5,5.1,5.1c0,8.8,0.2,17.6,0.4,26.4c0.1,3.3,0,7.2,4.9,6.4c3.7-0.6,9.1,1.2,8.6-6.3c-0.5-8.9,0.4-18,0.5-26.9
			c0-3.4,1.2-4.7,4.7-4.7c20.8,0.2,41.7,0.4,62.5,0.4c3.8,0,4.9,1.7,5,5.2c0.2,8.2,0.3,16.5,1.1,24.6c0.2,2.6-0.9,7,3.6,7.2
			c6.5,0.3,10.1-2.6,10.4-7.9c0.4-7.6,0.7-15.3,0.7-22.9c0-4.5,1.2-6.6,6.2-6.4c10.9,0.4,21.8,0.4,32.7,0.6c0,0,0.2,0.3,0.2,0.3
			c-0.1,2.6-0.2,5.1,0.8,7.6c-0.4,6.1,1.6,11.7,3.6,17.2C263,93.1,274.9,108.2,294,117.3z M54.2,204.3
			C54.2,204.3,54.2,204.3,54.2,204.3c0.1,29.6,0,59.3,0.1,88.9c0,16.7,11.9,29.5,28.5,29.5c52.8,0.3,105.6,0.2,158.4,0.2
			c6,0,11.2-2,15.9-5.7c8.2-6.6,11.9-15.2,11.8-25.6c-0.2-15.3-1-30.6-0.7-45.9c0.8-42.6,0.8-85.3-0.2-127.9
			c-0.3-14-11.3-26.9-24.7-27.9c-8.8-0.7-17.6-0.7-26.4-1c-3.7-0.2-5.1,1.5-5.2,5.1c-0.2,6.3-0.6,12.6-0.9,18.9
			c-0.2,4.4-2,7.7-6.7,7.7c-5.1,0-6-4.2-6.1-8.1c-0.1-5.2,0.1-10.3,0.5-15.5c0.4-5.4-1.5-7.5-7.1-7.5c-20.5,0.1-40.9,0-61.4-0.3
			c-4.8-0.1-6.6,1.6-6.1,6.4c0.5,5.7,0.8,11.5,0.7,17.2c-0.1,5.3-3.4,9.1-7.1,8.8c-5.3-0.4-7-3.9-6.9-8.7c0-5.5-0.2-11.1,0.1-16.6
			c0.2-4.9-1.4-7-6.5-6.8c-8,0.3-16.2,0.9-24.1,0c-12.4-1.5-26.3,14-25.9,25.9C54.8,145,54.2,174.7,54.2,204.3z"/>
		<path class="st0" d="M254.9,30c12-2.7,24.5-4.1,35.5-10.3c4.7-2.6,8.4-3,13.3-0.2c9.5,5.4,20.2,7.7,31.1,9.3
			c2,0.3,4.1,0.1,4.1,3.4c0.4,23.4-2.3,45.8-17.7,64.8c-6.9,8.5-14.4,16.3-25.2,20c-22.8-14-37.5-33.6-41.2-60.6
			c-0.2-2.6-0.3-5.3-0.5-7.9c2.1-0.7,1.4-2.3,1.3-3.8C255.4,39.8,255.1,34.9,254.9,30z M308.9,26.5L308.9,26.5
			c-0.8-2.4-3.3-2.4-5.2-3.2c-2.9-1.2-5.4-4.3-9.4-2.1c-10.1,5.6-21.1,8.7-32.6,10c-2.1,0.2-3.5,0.8-3.5,3.4
			c-0.1,30.6,6,58.2,34.8,75.7c3.5,2.1,5.4,2.3,8.4,0.4c11.9-7.6,20.7-17.9,26.9-30.6c7-14.4,7-29.9,7.8-45.3
			c0.1-1.9-0.7-2.9-2.4-3.3C325.4,29.9,317.2,28.2,308.9,26.5z"/>
		<path class="st0" d="M160.1,149.4c22.6,0,45.1,0,67.7,0c2.7,0,5.4,0.2,8,0.6c12.1,2.2,15.9,6.8,15.9,19.1
			c-0.1,35.4-0.1,70.7-0.3,106.1c-0.1,13.7-7.4,20.7-21,21c-1.1,0-2.3,0-3.4,0c-5.2,0-10.3,0-15.5,0c-36.3,0.2-72.6,0.3-108.9,0.4
			c-5.3,0-10.7-0.1-16-0.8c-10-1.3-16.2-8.1-16.2-18.2c0-37.1,0-74.2,0.2-111.3c0-10.3,7.8-17,19.7-17c23.3-0.1,46.6,0,70,0
			C160.1,149.4,160.1,149.4,160.1,149.4z M182.5,281.1c3,0,6.1-0.2,9.1,0c4.6,0.3,6.7-1.7,6.6-6.3c-0.1-4.6-0.2-9.1,0-13.7
			c0.2-4.8-1.9-7-6.8-6.9c-6.1,0.1-12.2,0.1-18.3,0c-4.2-0.1-6.4,1.7-6.3,6.1c0.1,2.1-0.1,4.2,0,6.3c0.1,17.1,0,14.3,14.6,14.4
			C181.7,281.1,182.1,281.1,182.5,281.1z M97.7,198.8c3.2,0,6.5-0.1,9.7,0c4,0.2,5.5-1.6,5.4-5.5c-0.2-5.3-0.2-10.7,0-16
			c0.2-4.7-2-6.1-6.2-6c-4.4,0.1-8.8,0-13.2,0c-11.8,0-11.8-0.1-11.8,11.6C81.7,200.8,79.7,198.6,97.7,198.8z M140,199
			c3,0,6.1-0.1,9.1,0c4.3,0.2,6.4-1.4,6.2-6c-0.2-5.1-0.2-10.3,0-15.4c0.1-4.5-2-6.2-6.2-6.1c-4.4,0.1-8.8,0-13.1,0
			c-11.5,0-11.5,0-11.4,11.7C124.7,200.8,122.7,198.8,140,199z M97.3,281.1c3.3,0,6.5-0.1,9.8,0c4.1,0.2,6-1.6,5.9-5.8
			c-0.1-5.2-0.1-10.3,0-15.5c0.1-3.9-1.8-5.6-5.6-5.6c-6.5,0-13,0.1-19.5,0c-4.6-0.1-6.7,2.1-6.3,6.7c0.1,1.5,0,3.1,0,4.6
			C81.7,283,79.6,281,97.3,281.1z M140,281.1c3.1,0,6.1-0.1,9.2,0c4.3,0.3,6.4-1.4,6.1-5.9c-0.2-4.9-0.2-9.9,0-14.9
			c0.2-4.1-1.5-6-5.6-5.9c-6.5,0.1-13,0.1-19.4,0c-4.2-0.1-5.9,1.9-5.7,6c0.1,1.7,0,3.4,0,5.1C124.7,283.4,122.6,280.9,140,281.1z
			 M225.5,281.1c3.2,0,6.5-0.1,9.7,0c3.6,0.2,5.2-1.2,5.1-5c-0.2-5.3,0-10.7,0.1-16c0.1-3.8-1.7-5.7-5.4-5.7c-6.7,0-13.4,0-20-0.1
			c-3.9,0-5.4,2-5.3,5.8c0.1,5.2,0.1,10.3,0,15.5c-0.1,3.8,1.5,5.7,5.4,5.6C218.6,281,222.1,281.1,225.5,281.1z M182.6,198.9
			c3,0,6.1-0.2,9.1,0c4.5,0.3,6.2-1.8,6-6.1c-0.2-5.1-0.2-10.3-0.1-15.4c0.1-4.1-1.9-5.9-5.9-5.9c-4.4,0-8.8,0-13.1,0
			c-11.4,0-11.4,0.1-11.4,11.7C167.3,198.4,167.3,198.4,182.6,198.9z M224.8,198.9c3.2,0,6.5-0.1,9.7,0c4.1,0.2,6.1-1.4,5.9-5.6
			c-0.2-5.3-0.2-10.7-0.1-16c0.1-4.2-1.9-5.9-5.9-5.8c-4.2,0.1-8.4,0-12.6,0c-12.1,0-12.1,0-12.1,12.4
			C209.9,201.1,208.5,198.8,224.8,198.9z M97.7,238.5c3.2,0,6.5-0.1,9.7,0c3.7,0.1,5.8-1.4,5.7-5.4c-0.1-5.4-0.1-10.7,0-16.1
			c0-3.4-1.4-4.8-4.8-4.7c-5.9,0.1-11.8-0.2-17.8-0.1c-8.8,0.2-8.8,0.3-8.9,9.2C81.4,240.9,80.9,237.3,97.7,238.5z M139.7,238
			C139.7,238,139.7,238.1,139.7,238c3.2,0.1,6.5,0,9.7,0.1c4,0.2,6-1.4,5.9-5.7c-0.2-4.9-0.1-9.9-0.1-14.9c0-3.6-1.6-5.3-5.2-5.2
			c-4.6,0.1-9.1,0-13.7,0c-11.7,0-11.8,0-11.7,11.8c0.1,15.4-0.7,13.7,13.4,13.8C138.5,238,139.1,238,139.7,238z M182.6,238.1
			c3.3,0,6.5-0.1,9.8,0c3.6,0.2,5.3-1.2,5.2-5c-0.1-5.4,0-10.7,0.1-16.1c0-3-1.4-4.7-4.5-4.7c-7.1,0-14.2,0-21.2,0
			c-3.5,0-4.8,1.9-4.9,5c0,1.7,0,3.4,0.1,5.2C167.3,238.1,167.3,238.1,182.6,238.1z M225.3,212.4c-3.6,0-7.3,0-10.9,0
			c-3,0-4.6,1.2-4.6,4.4c0.1,5.5,0.1,11.1,0.1,16.6c0,3,1.5,4.5,4.6,4.5c5.2,0,10.3,0.2,15.5,0.2c10.2,0,10.2,0,10.3-10.2
			C240.7,212.4,240.7,212.4,225.3,212.4z"/>
		<path class="st0" d="M308.9,26.5c-0.5,3.1,2.3,2.4,3.7,2.9c5.5,2.2,11.4,3,17.2,3.9c2.2,0.3,3.5,0.8,3.4,3.4
			c-0.4,14.1-0.9,28.2-6.7,41.4c-4.9,11.3-12.6,20.3-22.2,27.9c-4.9,3.9-9,4.1-14.2,0.1c-17.4-13.4-26.5-31.1-28.3-52.7
			c-0.5-6.1-2.5-13.2-0.1-18c2.4-4.8,10.6-2.7,16-4.8c3.9-1.5,8.1-2.6,11.7-4.6c5.2-2.9,10-3.7,15.2,0
			C305.6,26.7,307.3,28.7,308.9,26.5C309,26.5,308.9,26.5,308.9,26.5z"/>
	</g>
</g>
</svg>
