<?xml version="1.0" encoding="utf-8"?>
<!-- Generator: Adobe Illustrator 25.1.0, SVG Export Plug-In . SVG Version: 6.00 Build 0)  -->
<svg version="1.1" id="Camada_1" xmlns="http://www.w3.org/2000/svg" xmlns:xlink="http://www.w3.org/1999/xlink" x="0px" y="0px"
	 viewBox="0 0 362 363" style="enable-background:new 0 0 362 363;" xml:space="preserve">
<style type="text/css">
	.st0{fill:#012E63;}
</style>
<g>
	<g>
		<path class="st0" d="M181.9,359C84.8,358.9,6,279.9,6,182.5C6,84.9,84.9,5.9,182.4,6c97,0.1,175.7,79.3,175.6,176.7
			C357.9,280.1,279,359.1,181.9,359z M212.4,161.5c0.1-2.3-0.8-3.5-1.9-4.6c-3.1-3.1-6.2-6.1-9.2-9.2c-2.2-2.3-4.4-2.7-7.1-1.1
			c-4.2,2.4-8.5,4.6-12.8,6.8c-5.7,2.9-16.1-1.4-18.1-7.4c-1.5-4.6-2.6-9.3-4.4-13.8c-3.5-8.5-11.1-3.1-16.7-4.4
			c-3.6-0.8-6.6,0.5-7.6,4.6c-0.1,0.5-0.2,1-0.4,1.5c-1.2,3.7-2.6,7.2-3.4,11c-0.9,3.8-3.2,5.5-6.6,7.3c-5.9,3.2-11,2.7-16.3-0.9
			c-2.6-1.8-5.6-2.9-8.3-4.5c-2.7-1.6-5-1.4-7.2,0.9c-3,3.1-6.1,6.2-9.2,9.2c-2.1,2-2.4,4.1-1,6.7c2.2,3.9,3.9,8.1,6.3,11.9
			c2.2,3.5,1.6,6.5,0.5,10.3c-1.9,6.2-5.7,9.3-11.8,10.5c-3.1,0.6-6.1,1.9-9.1,2.7c-3.3,0.9-5,2.8-4.8,6.5c0.2,3.5,0.3,7,0,10.5
			c-0.4,4.6,1.7,6.7,5.9,7.8c3.9,1,7.6,2.6,11.5,3.5c3.8,0.9,5.4,3.3,7.3,6.7c3.2,5.9,2.5,10.9-1,16.2c-1.7,2.6-2.9,5.6-4.5,8.4
			c-1.6,2.7-1.4,5,0.9,7.2c3.2,3,6.2,6.1,9.2,9.2c2,2.1,4.1,2.5,6.7,1c4.1-2.3,8.3-4.3,12.4-6.5c6.6-3.4,16.7,0.8,18.9,7.8
			c1.3,4.3,2.7,8.6,4,12.9c1,3.3,3,4.9,6.6,4.7c3.7-0.2,7.4-0.3,11,0c4.2,0.3,6.1-1.7,7.1-5.4c1.3-4.5,2.8-8.9,4.1-13.4
			c0.6-2.2,1.8-3.7,3.9-4.9c6.6-3.6,13-4.4,19.4,0.5c2.2,1.7,5,2.6,7.5,4c2.7,1.6,5,1.3,7.2-1c2.9-3,5.8-6,8.9-8.8
			c2.5-2.3,2.7-4.7,1.1-7.6c-2.4-4.2-4.5-8.6-6.8-12.8c-0.8-1.5-1.9-3-1.2-4.7c2.5-5.9,3.6-12.1,11.8-14.4
			c18.6-5.2,14.7-1.1,15.2-21.2c0.1-3.4-1.3-5.3-4.5-6.3c-4.8-1.4-9.5-3-14.4-4.4c-2.5-0.7-3.7-2.3-5-4.5
			c-4.1-6.8-3.4-13.1,1.1-19.4C209.7,167.7,211.1,164.2,212.4,161.5z M286.7,112.4c0.7-4.4-1.7-6.3-5.7-7c-1.6-0.3-3.3-0.6-4.9-1.1
			c-3.7-1.3-4.9-3.8-3.2-7.4c0.6-1.4,1.4-2.7,2.3-3.9c2.7-3.4,2.8-6.2-0.6-9.5c-3.3-3.3-5.9-3.1-9.6-0.8c-8.3,5.3-10.1,4.5-12.4-5.1
			c-0.1-0.5-0.2-1-0.3-1.5c-0.8-3.7-3.1-5-6.9-5c-3.7,0-6.1,1.2-6.9,4.9c-0.5,2.1-0.9,4.3-1.6,6.3c-1.2,3.3-3.7,4.2-6.8,2.9
			c-1.5-0.6-3-1.5-4.3-2.5c-3.4-2.6-6.2-2.8-9.6,0.6c-3.3,3.4-3.3,6.1-0.6,9.6c0.9,1.2,1.7,2.5,2.3,3.9c1.6,3.5,0.7,6.2-3.2,7.5
			c-1.4,0.5-2.9,0.8-4.4,1.1c-3.9,0.7-6.3,2.3-6.3,6.9c0,4.5,1.5,7,6,7.5c1.3,0.2,2.6,0.5,3.9,0.9c4.4,1.3,5.7,4.3,3.5,8.4
			c-1,1.9-2.2,3.7-3.4,5.6c-1,1.6-1,3.1,0,4.7c3.3,5.4,6.4,6.2,11.9,2.9c1.3-0.8,2.5-1.8,3.9-2.3c3.3-1.2,5.9-0.5,7.2,3.1
			c0.5,1.4,0.8,2.9,1,4.4c0.6,4.6,2.9,6.6,7.7,6.5c4.8-0.1,6.2-2.8,7-6.8c1.8-8.8,4.2-9.7,11.8-5c0.7,0.4,1.5,0.8,2.2,1.3
			c2.5,1.8,4.6,1.2,6.7-0.8c4.6-4.1,4.9-5.4,1.7-10.5c-0.7-1.1-1.5-2.2-2.1-3.4c-2.1-4-0.9-6.8,3.4-8c1.6-0.5,3.2-0.9,4.9-1.2
			C285.5,118.9,287.2,116.6,286.7,112.4z"/>
		<path class="st0" d="M146.6,189.3c12.6,0,22,9.1,22.1,21.5c0.1,12.8-9.2,22.2-21.9,22.2c-12.5,0-21.8-9.3-21.8-21.7
			C124.9,198.8,134.2,189.4,146.6,189.3z"/>
		<path class="st0" d="M245.6,124.4c-7,0.1-12-4.9-12-11.9c0-6.8,5.2-12.1,12-12c6.5,0,11.8,5.2,11.9,11.7
			C257.6,119,252.4,124.4,245.6,124.4z"/>
	</g>
</g>
</svg>
