<?xml version="1.0" encoding="utf-8"?>
<!-- Generator: Adobe Illustrator 25.1.0, SVG Export Plug-In . SVG Version: 6.00 Build 0)  -->
<svg version="1.1" id="Camada_1" xmlns="http://www.w3.org/2000/svg" xmlns:xlink="http://www.w3.org/1999/xlink" x="0px" y="0px"
	 viewBox="0 0 362 363" style="enable-background:new 0 0 362 363;" xml:space="preserve">
<style type="text/css">
	.st0{fill:#033065;}
</style>
<g>
	<g>
		<path class="st0" d="M354.8,182.5c3.8,85-68.7,174.8-176,173.1C78.7,354,5.4,268.6,9,175.7C12.1,94.9,79.9,7.4,186.8,9.9
			C289.4,12.3,358.2,99.2,354.8,182.5z M114.8,182.6c-0.1,7.6,0.5,15.2,1.4,22.7c0.9,7.7,5.2,11,12.7,9.4
			c35.9-7.6,71.9-7.4,107.8-0.2c5.2,1,10.4-2.1,11.1-7.2c2.3-16.3,2.3-32.7,0-49.1c-0.7-5.2-5.8-8.6-10.9-7.5
			c-36.2,7.4-72.3,7.4-108.4-0.2c-6.7-1.4-11.4,1.9-12.2,8.7C115.4,167,114.7,174.8,114.8,182.6z M182.5,129.2
			c15.4,0,30.8-1.5,45.9-4.4c7.8-1.5,10.3-6.2,7.4-13.4c-9.6-24.1-23.6-45.4-42.1-63.6c-9.2-9.2-13.8-9.1-23.2,0.1
			c-18.2,18-31.9,38.9-41.7,62.5c-3.3,8-0.9,12.5,7.7,14.2C151.8,127.6,167.1,129.1,182.5,129.2z M181.9,324.6
			c3.3-0.1,7.3-2.5,11.6-6.7c18.4-18.3,32.5-39.5,42.2-63.6c3.1-7.7,0.6-12.2-7.6-13.8c-10.2-2-20.5-3.2-30.9-3.9
			c-20.7-1.3-41.2,0.3-61.5,4.4c-7.5,1.5-9.9,6.2-7.1,13.1c2.3,5.5,4.7,11,7.5,16.4c9.1,17.8,20.8,33.7,35.1,47.7
			C174.4,321.3,177.7,324.2,181.9,324.6z M90.2,147.8c0.5-4.5-2.3-8.6-7.5-11.1c-7.4-3.5-14.9-6.9-22.3-10.5
			c-7.9-3.9-12-2.4-15.2,5.9c-4.7,12-7.4,24.5-8.6,37.3c-2.1,22.5,1,44.3,9.2,65.4c2.3,5.8,7.1,8,11.8,5.7c8.5-4,17.1-7.9,25.5-12.1
			c5.3-2.6,8.1-6.7,7-13.1c-2.4-14.5-3.1-29.1-2.2-43.7C88.4,163.7,89.4,155.7,90.2,147.8z M328.5,182.3c-0.2-16.9-3-33.9-9.4-50.3
			c-2.8-7.1-7.2-8.7-13.6-5.6c-7.2,3.5-14.5,6.8-21.8,10c-8.1,3.6-10.4,7.4-9.2,15.8c3,20.3,3,40.6,0,61c-1.3,8.5,1.1,12.2,9.2,15.8
			c6.8,3,13.5,6,20.2,9.2c8.8,4.3,12.4,2.9,15.9-6.4C325.5,216,328.3,199.7,328.5,182.3z M240.9,50c-2.6-0.2-4.1,0-4.8,1.4
			c-1.2,2.3,0.2,4.4,1.4,6.1c10.3,14.9,18.7,30.8,25.2,47.7c2,5.2,7.2,7.7,11.5,5.9c5.9-2.5,11.8-5.1,17.4-8.2
			c6.4-3.5,7.1-8.1,2.4-13.7c-13.4-15.8-29.4-28.3-48-37.3C244.1,50.9,241.9,50.3,240.9,50z M240.4,315.6c1.4-0.5,3.3-0.9,5.1-1.8
			c19-9.2,35.3-21.8,48.9-38.1c4.2-5.1,3.5-9.5-2.3-12.8c-4.8-2.8-10-5-15.1-7.3c-7.4-3.3-11.8-1.4-14.9,6.4
			c-6,15.3-13.6,29.8-22.9,43.5c-1.1,1.6-2.3,3.3-3,5.2C234.8,314.1,236.5,315.5,240.4,315.6z M124.2,49.8c-1.4,0.5-3.6,1-5.5,1.9
			C100,60.7,84,73.2,70.6,89c-4.1,4.9-3.4,9.7,2.2,12.9c4.7,2.7,9.6,4.9,14.6,7.1c7.9,3.6,12.1,1.8,15.3-6.4
			c6-15.1,13.5-29.4,22.7-42.9c1.1-1.6,2.2-3.4,3-5.2C129.5,51.4,127.9,50,124.2,49.8z M124,315.6c2-0.1,3.8,0,4.5-1.8
			c0.9-2.4-0.5-4.3-1.7-6.1c-10.1-14.6-18.2-30.1-24.7-46.6c-2.1-5.4-7-7.9-11.4-6.1c-6.1,2.6-12.1,5.3-17.9,8.5
			c-5.7,3.2-6.3,8-2.2,12.9c13.4,15.8,29.4,28.2,48.1,37.2C120.4,314.6,122.4,315.1,124,315.6z"/>
	</g>
</g>
</svg>
