<?xml version="1.0" encoding="utf-8"?>
<!-- Generator: Adobe Illustrator 25.1.0, SVG Export Plug-In . SVG Version: 6.00 Build 0)  -->
<svg version="1.1" id="Camada_1" xmlns="http://www.w3.org/2000/svg" xmlns:xlink="http://www.w3.org/1999/xlink" x="0px" y="0px"
	 viewBox="0 0 362 363" style="enable-background:new 0 0 362 363;" xml:space="preserve">
<style type="text/css">
	.st0{fill:#012F63;}
	.st1{fill:#FFFFFF;}
</style>
<g>
	<circle class="st0" cx="181" cy="181.5" r="169.2"/>
	<circle class="st1" cx="181" cy="181.5" r="150.4"/>
	<g>
		<g>
			<path class="st0" d="M18.1,197.7c0-10.5,0-21.1,0-31.6c1.8-1.7,1.2-4.1,1.5-6.1c9.7-67,59.2-119.9,125.1-133.7
				c5.5-1.1,11.2-1,16.4-3.3c9.9,0,19.9,0,29.8,0c2.5,1.7,5.5,1.2,8.3,1.5c65.6,8.8,120.1,60,133.3,125.1c1.2,5.8,1.3,11.7,3.3,17.3
				c0,10.2,0,20.5,0,30.7c-2.1,4.7-1.9,9.8-2.9,14.7c-16.4,82.9-94.1,138.2-178.1,126.7c-66.4-9.1-120-59.5-133.6-125.5
				C20.2,208.4,20.4,202.8,18.1,197.7z M222.8,97.6c-0.4,0.5-0.7,1.1-1.1,1.6c4.6,4.2,9.2,8.5,13.9,12.6c1.9,1.7,2.2,2.7,0.2,4.7
				c-13.2,12.9-26.2,25.9-39.1,39c-2.1,2.2-3.2,1.8-5.1-0.1c-9.3-9.5-18.8-18.8-28.2-28.2c-1.4-1.4-2.2-2.2-4.1-0.3
				c-26.7,26.8-53.6,53.6-80.4,80.3c-1.6,1.5-1.5,2.4,0,3.8c4.3,4.1,8.7,8.3,12.7,12.7c2.3,2.6,3.5,2,5.7-0.2
				c20.3-20.5,40.8-40.7,61-61.2c2.2-2.2,3.3-2.1,5.3,0.1c9.1,9.3,18.5,18.3,27.5,27.7c2.4,2.5,3.5,2.2,5.7-0.1
				c17.6-17.8,35.3-35.4,53-53.1c5.4-5.4,5.4-5.4,10.9,0c3.4,3.4,6.9,6.7,10.9,10.6c1.8-18.2,3.4-35.3,5.1-52.3
				c0.2-2.2-0.2-2.9-2.4-2.6C257.2,94.4,240,96,222.8,97.6z M255.9,147.7c-8.4,8.4-15.7,15.9-23.2,23.3c-1.2,1.2-1.4,2.4-1.4,3.9
				c0,31,0,62,0,92.9c0,2.6,0.6,3.6,3.4,3.5c5.5-0.2,11.1-0.4,16.6,0c4.1,0.3,4.7-1.2,4.7-4.9c-0.2-31-0.1-62-0.1-92.9
				C255.9,165.4,255.9,157.3,255.9,147.7z M164.2,179.8c-0.7,0.6-0.9,0.7-1,0.8c0,29.2,0,58.4-0.1,87.7c0,2.6,0.9,3.2,3.3,3.1
				c6-0.1,12-0.2,18,0c2.8,0.1,3.4-0.8,3.4-3.5c-0.1-20.6-0.1-41.2,0-61.8c0-1.5-0.2-2.8-1.4-3.9C179,194.8,171.7,187.3,164.2,179.8
				z M221.8,183.2c-0.3-0.2-0.6-0.4-1-0.6c-7.6,7.6-15.1,15.3-22.7,22.9c-1,1-0.9,2.1-0.9,3.3c0,19.9,0,39.7,0,59.6c0,2.3,0.7,3,3,3
				c6.1-0.1,12.3-0.1,18.4,0c2.4,0.1,3.3-0.6,3.3-3.1C221.8,239.9,221.8,211.6,221.8,183.2z M153.9,185c-0.4-0.2-0.8-0.3-1.1-0.5
				c-7.3,7.4-14.5,14.8-21.8,22.2c-1.1,1.1-1.6,2.3-1.6,3.8c0,19.3,0.1,38.6,0,57.9c0,2.3,0.7,3,3,3c5.8-0.1,11.7-0.2,17.5,0
				c3.3,0.1,4.2-0.8,4.1-4.1c-0.2-25.3-0.1-50.6-0.1-75.9C153.9,189.3,153.9,187.1,153.9,185z M119.9,219c-0.3-0.2-0.7-0.3-1-0.5
				c-7.4,7.5-14.8,14.9-22.2,22.4c-0.9,0.9-1.3,1.8-1.3,3.1c0.1,8.3,0.1,16.7,0,25c0,1.7,0.6,2.3,2.3,2.3c6.7-0.1,13.5-0.1,20.2,0
				c1.8,0,2.1-0.9,2.1-2.5C119.8,252.2,119.9,235.6,119.9,219z"/>
		</g>
	</g>
</g>
</svg>
