<?xml version="1.0" encoding="utf-8"?>
<!-- Generator: Adobe Illustrator 25.1.0, SVG Export Plug-In . SVG Version: 6.00 Build 0)  -->
<svg version="1.1" id="Camada_1" xmlns="http://www.w3.org/2000/svg" xmlns:xlink="http://www.w3.org/1999/xlink" x="0px" y="0px"
	 viewBox="0 0 362 363" style="enable-background:new 0 0 362 363;" xml:space="preserve">
<style type="text/css">
	.st0{fill:#012E63;}
	.st1{fill:#E9EAEB;}
</style>
<g>
	<g>
		<path class="st0" d="M181.8,354c-94.7-0.1-171-76.9-170.8-171.9C11.2,88.1,88.1,11.8,182.5,12C276.9,12.1,353.3,89,353,183.6
			C352.8,277.8,276,354.2,181.8,354z M66,206.5c25,24.6,49.8,48.9,74.4,73.4c2.7,2.7,4.1,2.9,7,0c20.5-20.8,41.2-41.5,61.9-62.1
			c26-25.9,52-51.9,78-77.7c2.6-2.5,3-4.3,0-7.1c-7.1-6.5-13.8-13.4-20.4-20.4c-2.6-2.7-4.2-3.1-7-0.1c-13.8,14.1-27.9,28-41.8,42
			c-23.7,23.7-47.5,47.4-71.1,71.3c-2.3,2.4-3.6,2.8-6.3,0.2c-14.2-14.2-28.8-28.1-42.9-42.3c-3.3-3.3-5-3.8-8.4-0.1
			C81.9,191.5,73.8,198.9,66,206.5z"/>
		<path class="st1" d="M66,206.5c7.8-7.6,15.8-15,23.3-23c3.4-3.7,5.2-3.1,8.4,0.1c14.2,14.3,28.7,28.1,42.9,42.3
			c2.6,2.6,3.9,2.2,6.3-0.2c23.6-23.8,47.4-47.5,71.1-71.3c14-14,28-27.9,41.8-42c2.9-2.9,4.4-2.6,7,0.1c6.6,7,13.4,13.9,20.4,20.4
			c3,2.8,2.6,4.5,0,7.1c-26,25.9-52,51.8-78,77.7c-20.7,20.7-41.4,41.3-61.9,62.1c-2.8,2.9-4.2,2.7-7,0
			C115.8,255.4,91.1,231.2,66,206.5z"/>
	</g>
</g>
</svg>
